<?xml version="1.0" encoding="utf-8"?>
<!-- Generator: Adobe Illustrator 19.0.0, SVG Export Plug-In . SVG Version: 6.00 Build 0)  -->
<svg version="1.1" id="Capa_1" xmlns="http://www.w3.org/2000/svg" xmlns:xlink="http://www.w3.org/1999/xlink" x="0px" y="0px"
	 viewBox="0 0 107.3 106.7" style="enable-background:new 0 0 107.3 106.7;" xml:space="preserve">
<style type="text/css">
	.st0{fill:none;stroke:#686868;stroke-width:4.167;stroke-miterlimit:10;}
	.st1{fill:none;stroke:#686868;stroke-width:4.167;stroke-linecap:round;stroke-linejoin:round;stroke-miterlimit:10;}
</style>
<g id="XMLID_72_">
	<path id="XMLID_20_" class="st0" d="M68.6,73.8v-4.3c0-2.5-1.5-4.8-3.8-5.8c-2.3-1-5.8-1.9-10.7-1.9c-4.9,0-8.4,0.9-10.8,1.9
		c-2.3,1-3.9,3.2-3.9,5.8v4.3"/>
	<path id="XMLID_19_" class="st1" d="M62.3,47.3c0,6.3-3.7,10.4-8.3,10.4c-4.6,0-8.3-4.2-8.3-10.4c0-4.6,3.7-8.3,8.3-8.3
		C58.6,38.9,62.3,42.6,62.3,47.3z"/>
	<circle id="XMLID_18_" class="st0" cx="54" cy="53.5" r="25"/>
	<circle id="XMLID_17_" class="st0" cx="97.8" cy="53.5" r="6.3"/>
	<circle id="XMLID_16_" class="st0" cx="87.3" cy="20.2" r="6.3"/>
	<circle id="XMLID_15_" class="st0" cx="10.3" cy="53.5" r="6.3"/>
	<circle id="XMLID_14_" class="st0" cx="54" cy="9.8" r="6.3"/>
	<circle id="XMLID_13_" class="st0" cx="54" cy="97.3" r="6.3"/>
	<line id="XMLID_12_" class="st0" x1="79" y1="53.5" x2="91.5" y2="53.5"/>
	<line id="XMLID_11_" class="st0" x1="16.5" y1="53.5" x2="29" y2="53.5"/>
	<line id="XMLID_10_" class="st0" x1="54" y1="16" x2="54" y2="28.5"/>
	<line id="XMLID_9_" class="st0" x1="54" y1="78.5" x2="54" y2="91"/>
	<line id="XMLID_8_" class="st0" x1="82.9" y1="24.6" x2="71.7" y2="35.8"/>
	<circle id="XMLID_7_" class="st0" cx="20.7" cy="20.2" r="6.2"/>
	<line id="XMLID_6_" class="st0" x1="25.1" y1="24.6" x2="36.3" y2="35.8"/>
	<circle id="XMLID_5_" class="st0" cx="87.3" cy="86.8" r="6.3"/>
	<line id="XMLID_4_" class="st0" x1="82.9" y1="82.4" x2="71.7" y2="71.2"/>
	<circle id="XMLID_3_" class="st0" cx="20.7" cy="86.8" r="6.2"/>
	<line id="XMLID_2_" class="st0" x1="25.1" y1="82.4" x2="36.3" y2="71.2"/>
</g>
</svg>
