<?xml version="1.0" encoding="utf-8"?>
<!-- Generator: Adobe Illustrator 19.0.0, SVG Export Plug-In . SVG Version: 6.00 Build 0)  -->
<svg version="1.1" id="Capa_1" xmlns="http://www.w3.org/2000/svg" xmlns:xlink="http://www.w3.org/1999/xlink" x="0px" y="0px"
	 viewBox="0 0 115 86" style="enable-background:new 0 0 115 86;" xml:space="preserve">
<style type="text/css">
	.st0{fill:none;stroke:#686868;stroke-width:3.621;stroke-miterlimit:10;}
	.st1{fill:none;stroke:#686868;stroke-width:3.621;stroke-linecap:round;stroke-miterlimit:10;}
</style>
<g id="XMLID_19_">
	<line id="XMLID_6_" class="st0" x1="5.3" y1="63.2" x2="43.3" y2="63.2"/>
	<polyline id="XMLID_5_" class="st1" points="28.9,81.3 41.5,81.3 41.5,70.5 	"/>
	<path id="XMLID_4_" class="st0" d="M92.2,18V8.9c0-2-1.6-3.6-3.6-3.6H8.9c-2,0-3.6,1.6-3.6,3.6v57.9c0,2,1.6,3.6,3.6,3.6h34.4"/>
	<path id="XMLID_3_" class="st0" d="M106.7,81.3H88.6c-2,0-3.6-1.6-3.6-3.6V45.1c0-2,1.6-3.6,3.6-3.6h18.1c2,0,3.6,1.6,3.6,3.6v32.6
		C110.3,79.7,108.7,81.3,106.7,81.3z"/>
	<path id="XMLID_2_" class="st0" d="M99.5,36.1V27c0-2-1.6-3.6-3.6-3.6H52.4c-2,0-3.6,1.6-3.6,3.6v50.7c0,2,1.6,3.6,3.6,3.6h27.2"/>
</g>
</svg>
