<?xml version="1.0" encoding="utf-8"?>
<!-- Generator: Adobe Illustrator 19.0.0, SVG Export Plug-In . SVG Version: 6.00 Build 0)  -->
<svg version="1.1" id="Capa_1" xmlns="http://www.w3.org/2000/svg" xmlns:xlink="http://www.w3.org/1999/xlink" x="0px" y="0px"
	 viewBox="0 0 104.3 106.3" style="enable-background:new 0 0 104.3 106.3;" xml:space="preserve">
<style type="text/css">
	.st0{fill:#686868;}
</style>
<g id="XMLID_58_">
	<path id="XMLID_27_" class="st0" d="M2.2,84.3v16.7c0,0.9,0.7,1.7,1.7,1.7h23.3c0.9,0,1.7-0.7,1.7-1.7V84.3c0-4.7-2.9-8.8-6.9-10.7
		c2.2-1.8,3.6-4.6,3.6-7.7c0-5.5-4.5-10-10-10c-5.5,0-10,4.5-10,10c0,3.1,1.4,5.8,3.6,7.7C5,75.4,2.2,79.5,2.2,84.3 M15.5,78.7
		l1.6,3.9l-1.6,4.7l-1.6-4.7L15.5,78.7z M15.5,72.6c-3.5,0-6.4-2.8-6.6-6.2c2-1.4,4.2-2.1,6.6-2.1c2.4,0,4.7,0.8,6.6,2.1
		C21.9,69.8,19,72.6,15.5,72.6 M15.5,59.3c2.2,0,4,1,5.3,2.6c-1.7-0.6-3.4-1-5.3-1c-1.8,0-3.6,0.3-5.3,1
		C11.5,60.3,13.4,59.3,15.5,59.3 M13,76l-2.4,6c-0.1,0.4-0.2,0.8,0,1.1l3.3,10c0.2,0.7,0.9,1.1,1.6,1.1c0.7,0,1.4-0.5,1.6-1.1
		l3.3-10c0.1-0.4,0.1-0.8,0-1.1L18,76c4.2,0.4,7.5,3.9,7.5,8.3v15h-20v-15C5.5,79.9,8.8,76.4,13,76"/>
	<path id="XMLID_26_" class="st0" d="M94.2,68.2l-7.2,8.6l-3.7-3.7L81,75.4l5,5c0.3,0.3,0.7,0.5,1.2,0.5c0,0,0.1,0,0.1,0
		c0.5,0,0.9-0.2,1.2-0.6l8.3-10L94.2,68.2z"/>
	<path id="XMLID_25_" class="st0" d="M40.4,50.1l-3.7-3.7l-2.4,2.4l5,5c0.3,0.3,0.7,0.5,1.2,0.5c0,0,0.1,0,0.1,0
		c0.5,0,0.9-0.2,1.2-0.6l8.3-10l-2.6-2.1L40.4,50.1z"/>
	<path id="XMLID_22_" class="st0" d="M95.4,16.4c-0.2-0.6-0.7-1-1.3-1.1l-6-0.9l-2.7-5.8c-0.3-0.6-0.9-1-1.5-1c-0.6,0-1.2,0.4-1.5,1
		l-2.7,5.8l-6,0.9c-0.6,0.1-1.1,0.5-1.3,1.1c-0.2,0.6,0,1.2,0.4,1.7l4.4,4.5L76,29c-0.1,0.6,0.2,1.3,0.7,1.6
		c0.5,0.4,1.2,0.4,1.8,0.1l5.4-3l5.4,3c0.3,0.1,0.5,0.2,0.8,0.2c0.3,0,0.7-0.1,1-0.3c0.5-0.4,0.8-1,0.7-1.6l-1-6.4l4.4-4.5
		C95.5,17.6,95.6,17,95.4,16.4 M87.6,20.8c-0.4,0.4-0.5,0.9-0.5,1.4l0.6,3.8l-3.2-1.8c-0.3-0.1-0.5-0.2-0.8-0.2
		c-0.3,0-0.6,0.1-0.8,0.2l-3.2,1.8l0.6-3.8c0.1-0.5-0.1-1.1-0.5-1.4L77.3,18l3.7-0.6c0.5-0.1,1-0.4,1.3-0.9l1.6-3.4l1.6,3.4
		c0.2,0.5,0.7,0.9,1.3,0.9l3.7,0.6L87.6,20.8z"/>
	<path id="XMLID_18_" class="st0" d="M90.5,95.9v-8.4c6.6-0.8,11.7-6.4,11.7-13.2c0-6.8-5.1-12.4-11.7-13.2V49.3
		c0-0.9-0.7-1.7-1.7-1.7h-15l2.7-2l-2-2.7l-6.2,4.7H55.5c0-6.8-5.1-12.4-11.7-13.2V22.6h11.7l-2.7,2l2,2.7l6.7-5
		c0.4-0.3,0.7-0.8,0.7-1.3c0-0.5-0.2-1-0.7-1.3l-6.7-5l-2,2.7l2.7,2H42.2c-0.9,0-1.7,0.7-1.7,1.7v13.4c-6.6,0.8-11.7,6.4-11.7,13.2
		c0,7.4,6,13.3,13.3,13.3c6.2,0,11.4-4.3,12.9-10h13.2l6.2,4.7l2-2.7l-2.7-2h13.3V61c-6.6,0.8-11.7,6.4-11.7,13.2
		c0,6.8,5.1,12.4,11.7,13.2v6.8H61.1l-6.2-4.7l-2,2.7l2.7,2H32.2v3.3h23.3l-2.7,2l2,2.7l6.2-4.7h27.8C89.8,97.6,90.5,96.8,90.5,95.9
		 M42.2,57.6c-5.5,0-10-4.5-10-10s4.5-10,10-10c5.5,0,10,4.5,10,10S47.7,57.6,42.2,57.6 M78.8,74.3c0-5.5,4.5-10,10-10
		c5.5,0,10,4.5,10,10c0,5.5-4.5,10-10,10C83.3,84.3,78.8,79.8,78.8,74.3"/>
	<path id="XMLID_17_" class="st0" d="M96.8,33.9l-2.4-2.4c-0.7,0.7-1.5,1.3-2.3,1.9l1.9,2.8C95,35.5,96,34.7,96.8,33.9"/>
	<path id="XMLID_16_" class="st0" d="M100.8,27.9l-3.1-1.3c-0.4,0.9-0.8,1.8-1.4,2.6l2.8,1.9C99.8,30.1,100.3,29,100.8,27.9"/>
	<path id="XMLID_15_" class="st0" d="M102.2,20.8l-3.3,0.1c0,1-0.1,2-0.3,2.9l3.3,0.6C102.1,23.3,102.2,22.1,102.2,20.8L102.2,20.8z
		"/>
	<path id="XMLID_14_" class="st0" d="M99,10.7c-0.7-1-1.4-1.9-2.3-2.8l-2.3,2.4c0.7,0.7,1.3,1.5,1.9,2.3L99,10.7z"/>
	<path id="XMLID_13_" class="st0" d="M100.8,13.8l-3.1,1.3c0.4,0.9,0.7,1.9,0.9,2.8l3.3-0.7C101.6,16.1,101.2,14.9,100.8,13.8"/>
	<path id="XMLID_12_" class="st0" d="M76.8,4l1.3,3.1c0.9-0.4,1.8-0.7,2.8-0.9l-0.7-3.3C79,3.2,77.9,3.5,76.8,4"/>
	<path id="XMLID_11_" class="st0" d="M65.5,21l3.3,0c0-1,0.1-2,0.3-2.9l-3.3-0.6C65.6,18.5,65.5,19.7,65.5,21L65.5,21z"/>
	<path id="XMLID_10_" class="st0" d="M73.7,36.2c1,0.7,2.1,1.2,3.2,1.7l1.3-3.1c-0.9-0.4-1.8-0.8-2.6-1.4L73.7,36.2z"/>
	<path id="XMLID_9_" class="st0" d="M70.8,8l2.4,2.4c0.7-0.7,1.5-1.3,2.3-1.9l-1.9-2.8C72.6,6.4,71.7,7.1,70.8,8"/>
	<path id="XMLID_8_" class="st0" d="M70,15.2c0.4-0.9,0.8-1.8,1.4-2.6l-2.8-1.8c-0.7,1-1.2,2.1-1.7,3.2L70,15.2z"/>
	<path id="XMLID_7_" class="st0" d="M80.9,35.6l-0.6,3.3c1.2,0.2,2.4,0.3,3.6,0.3h0l0-3.3C82.9,35.9,81.9,35.8,80.9,35.6"/>
	<path id="XMLID_6_" class="st0" d="M66.9,28l3.1-1.3c-0.4-0.9-0.7-1.8-0.9-2.8l-3.3,0.7C66.1,25.7,66.4,26.9,66.9,28"/>
	<path id="XMLID_5_" class="st0" d="M86.7,6.2l0.6-3.3c-1.2-0.2-2.3-0.3-3.5-0.3h-0.1l0.1,3.3C84.8,5.9,85.8,6,86.7,6.2"/>
	<path id="XMLID_4_" class="st0" d="M73.2,31.5c-0.7-0.7-1.3-1.5-1.9-2.3l-2.8,1.9c0.7,1,1.4,1.9,2.3,2.8L73.2,31.5z"/>
	<path id="XMLID_3_" class="st0" d="M90.8,3.9L89.5,7c0.9,0.4,1.8,0.8,2.6,1.4L94,5.6C93,5,91.9,4.4,90.8,3.9"/>
	<path id="XMLID_2_" class="st0" d="M86.8,35.6l0.6,3.3c1.2-0.2,2.3-0.6,3.4-1l-1.3-3.1C88.7,35.2,87.7,35.4,86.8,35.6"/>
</g>
</svg>
