<?xml version="1.0" encoding="utf-8"?>
<!-- Generator: Adobe Illustrator 19.0.0, SVG Export Plug-In . SVG Version: 6.00 Build 0)  -->
<svg version="1.1" id="Capa_1" xmlns="http://www.w3.org/2000/svg" xmlns:xlink="http://www.w3.org/1999/xlink" x="0px" y="0px"
	 viewBox="0 0 109.5 108" style="enable-background:new 0 0 109.5 108;" xml:space="preserve">
<style type="text/css">
	.st0{fill:none;stroke:#686868;stroke-width:4;stroke-linejoin:round;stroke-miterlimit:10;}
	.st1{fill:none;stroke:#686868;stroke-width:4;stroke-miterlimit:10;}
</style>
<path id="XMLID_10_" class="st0" d="M70.7,80c0.1-0.7,0.1-1.3,0.1-2c0-8.8-7.2-16-16-16c-8.8,0-16,7.2-16,16c0,0.7,0.1,1.3,0.1,2"/>
<path id="XMLID_9_" class="st0" d="M86.8,80v-7l-7-2.1c0-0.1-0.1-0.3-0.1-0.4c-0.1-0.4-0.3-0.8-0.4-1.2c-0.1-0.4-0.3-0.8-0.4-1.2
	c-0.2-0.4-0.3-0.8-0.5-1.1c-0.2-0.4-0.4-0.8-0.6-1.2c-0.1-0.1-0.2-0.3-0.2-0.4l3.5-6.4l-7.1-7.1l-6.4,3.5c-0.1-0.1-0.3-0.2-0.4-0.2
	c-0.4-0.2-0.8-0.4-1.2-0.6c-0.4-0.2-0.7-0.4-1.1-0.5c-0.4-0.2-0.8-0.3-1.2-0.4c-0.4-0.1-0.8-0.3-1.2-0.4c-0.1,0-0.3-0.1-0.4-0.1
	l-2.1-7h-10l-2.1,7c-0.2,0-0.3,0.1-0.4,0.1c-0.4,0.1-0.8,0.3-1.2,0.4c-0.4,0.1-0.8,0.3-1.2,0.4c-0.4,0.2-0.8,0.3-1.1,0.5
	c-0.4,0.2-0.8,0.4-1.2,0.6c-0.1,0.1-0.3,0.2-0.4,0.2l-6.4-3.5l-7.1,7.1l3.5,6.4c-0.1,0.1-0.2,0.3-0.2,0.4c-0.2,0.4-0.4,0.8-0.6,1.2
	c-0.2,0.4-0.4,0.7-0.5,1.1c-0.2,0.4-0.3,0.8-0.4,1.2c-0.1,0.4-0.3,0.8-0.4,1.2c0,0.1-0.1,0.3-0.1,0.4l-7,2.1v7"/>
<path id="XMLID_8_" class="st0" d="M64.8,28c0,5.5-4.5,10-10,10c-5.5,0-10-4.5-10-10"/>
<path id="XMLID_7_" class="st0" d="M44.8,28c0,5.5-4.5,10-10,10c-5.5,0-10-4.5-10-10"/>
<path id="XMLID_6_" class="st0" d="M24.8,28c0,5.5-4.5,10-10,10c-5.5,0-10-4.5-10-10l8-22h84l8,22c0,5.5-4.5,10-10,10
	c-5.5,0-10-4.5-10-10"/>
<path id="XMLID_5_" class="st0" d="M84.8,28c0,5.5-4.5,10-10,10c-5.5,0-10-4.5-10-10"/>
<polyline id="XMLID_4_" class="st0" points="10.8,37.2 10.8,102 98.8,102 98.8,37.2 "/>
<line id="XMLID_3_" class="st0" x1="4.8" y1="28" x2="104.8" y2="28"/>
<line id="XMLID_2_" class="st1" x1="10.8" y1="80" x2="98.8" y2="80"/>
</svg>
