<?xml version="1.0" encoding="utf-8"?>
<!-- Generator: Adobe Illustrator 19.0.0, SVG Export Plug-In . SVG Version: 6.00 Build 0)  -->
<svg version="1.1" id="Capa_1" xmlns="http://www.w3.org/2000/svg" xmlns:xlink="http://www.w3.org/1999/xlink" x="0px" y="0px"
	 viewBox="0 0 102 104.5" style="enable-background:new 0 0 102 104.5;" xml:space="preserve">
<style type="text/css">
	.st0{fill:#686868;}
</style>
<path id="XMLID_35_" class="st0" d="M65.5,78c-0.4,0-0.8-0.1-1.1-0.4c-0.6-0.6-0.6-1.6,0-2.2l3.6-3.6L59.2,63l-3.6,3.6
	c-0.6,0.6-1.6,0.6-2.2,0c-0.6-0.6-0.6-1.6,0-2.2l4.6-4.6c0.3-0.3,0.7-0.4,1.1-0.4c0.4,0,0.8,0.2,1.1,0.4l10.9,10.9
	c0.6,0.6,0.6,1.6,0,2.2l-4.6,4.6C66.3,77.8,65.9,78,65.5,78"/>
<path id="XMLID_31_" class="st0" d="M30.7,101.8c-7.5,0-14.5-2.9-19.8-8.2C-0.1,82.7-0.1,64.9,10.9,54l12.6-12.6
	c0.6-0.6,1.6-0.6,2.2,0l10.9,10.9c0.3,0.3,0.4,0.7,0.4,1.1c0,0.4-0.2,0.8-0.4,1.1L23.9,67.1c-1.8,1.8-2.8,4.2-2.8,6.7
	c0,2.5,1,4.9,2.8,6.7c3.7,3.7,9.8,3.7,13.5,0L50,67.9c0.3-0.3,0.7-0.4,1.1-0.4c0.4,0,0.8,0.2,1.1,0.4l10.9,10.9
	c0.6,0.6,0.6,1.6,0,2.2L50.5,93.6C45.2,98.9,38.2,101.8,30.7,101.8 M24.6,44.6L13,56.1c-9.7,9.7-9.7,25.6,0,35.3
	c4.7,4.7,11,7.3,17.7,7.3c6.7,0,12.9-2.6,17.7-7.3l11.6-11.6l-8.8-8.8L39.6,82.7c-4.9,4.9-12.9,4.9-17.8,0c-2.4-2.4-3.7-5.5-3.7-8.9
	c0-3.4,1.3-6.5,3.7-8.9l11.6-11.6L24.6,44.6z M38.5,81.6L38.5,81.6L38.5,81.6z"/>
<path id="XMLID_30_" class="st0" d="M39,51.4c-0.4,0-0.8-0.1-1.1-0.4c-0.6-0.6-0.6-1.6,0-2.2l3.6-3.6l-8.8-8.8L29.1,40
	c-0.6,0.6-1.6,0.6-2.2,0c-0.6-0.6-0.6-1.6,0-2.2l4.6-4.6c0.3-0.3,0.7-0.4,1.1-0.4c0.4,0,0.8,0.2,1.1,0.4l10.9,10.9
	c0.6,0.6,0.6,1.6,0,2.2L40,51C39.7,51.3,39.3,51.4,39,51.4"/>
<path id="XMLID_29_" class="st0" d="M63.9,31.2h-8.5c-0.9,0-1.8-0.1-2.7-0.2c-1.2-0.2-3,0-3.6,0c-0.8,0.1-1.6-0.5-1.7-1.3
	c-0.1-0.8,0.5-1.6,1.3-1.7c0.1,0,2.6-0.4,4.5,0c0.7,0.1,1.4,0.2,2.2,0.2h8.5c0.6,0,1.1-0.5,1.1-1.1v-9.7c0-0.3-0.1-0.6-0.3-0.8
	c-0.2-0.2-0.5-0.3-0.8-0.3h-5.9c-0.6,0-1.2-0.4-1.4-1c-0.2-0.6-0.1-1.3,0.4-1.7c0,0,2.1-1.8,2.4-4.1c0.1-0.9,0.2-1.8,0.3-2.7
	c0-0.2-0.1-0.4-0.2-0.5c-0.1-0.1-0.2-0.2-0.5-0.2c-0.3,0-0.6,0.2-0.6,0.5c-0.6,3.1-1.6,5.2-3,6.2c-0.6,0.4-1.1,0.7-1.4,0.9
	c-0.1,0.1-0.3,0.2-0.4,0.3c-0.6,2.8-2.2,4.6-4.4,5.2c-0.8,0.2-1.6-0.3-1.9-1.1c-0.2-0.8,0.3-1.6,1.1-1.9c1.3-0.3,1.9-1.8,2.2-3
	c0.3-1.2,1.1-1.7,1.9-2.1c0.3-0.2,0.7-0.4,1.2-0.7c0.7-0.5,1.4-2.1,1.8-4.3c0.3-1.8,1.8-3,3.6-3c1,0,2,0.4,2.7,1.1
	c0.7,0.7,1.1,1.7,1,2.7c-0.1,1-0.2,2-0.3,3c-0.2,1.2-0.7,2.3-1.2,3.2h2.7c1.1,0,2.2,0.4,2.9,1.2c0.8,0.8,1.2,1.8,1.2,2.9V27
	C68,29.3,66.2,31.2,63.9,31.2"/>
<path id="XMLID_22_" class="st0" d="M43.4,32.4c-0.6,0-1.3-0.3-1.7-0.7c-0.4-0.4-0.7-1-0.7-1.7l-0.1-12.3c0-0.6,0.2-1.2,0.6-1.7
	c0.4-0.5,1.1-0.8,1.7-0.8l4.5-0.1c0.6,0,1.3,0.3,1.7,0.7c0.4,0.4,0.7,1,0.7,1.7l0.1,12.3c0,1.3-1,2.5-2.3,2.5L43.4,32.4
	C43.5,32.4,43.4,32.4,43.4,32.4 M47.2,29.9L47.2,29.9L47.2,29.9z M43.4,29.4L43.4,29.4L43.4,29.4z M44,18.3l0.1,11.1l3.1,0
	l-0.1-11.1L44,18.3z M47.8,18.2L47.8,18.2L47.8,18.2z M44,17.7L44,17.7C44,17.7,44,17.7,44,17.7"/>
<path id="XMLID_21_" class="st0" d="M56.2,24.7c-0.4,0-0.8-0.2-1.1-0.5c-0.6-0.6-0.6-1.6,0-2.2c0.8-0.8,1.3-1.9,1.3-3v-4.3
	c0-0.8,0.7-1.5,1.5-1.5c0.8,0,1.5,0.7,1.5,1.5V19c0,2-0.8,3.9-2.2,5.2C57,24.5,56.6,24.7,56.2,24.7"/>
<path id="XMLID_18_" class="st0" d="M79.3,62.7c-2.3,0-4.5-0.5-6.6-1.5c-3.6-1.8-6.3-4.8-7.7-8.6c-2.7-7.9,1.5-16.5,9.3-19.2
	c3.8-1.3,7.9-1.1,11.5,0.7c3.6,1.8,6.3,4.8,7.7,8.6c2.7,7.9-1.5,16.5-9.3,19.2C82.7,62.5,81,62.7,79.3,62.7 M79.4,35.6
	c-1.3,0-2.7,0.2-3.9,0.7c-6.3,2.2-9.6,9-7.4,15.3c1,3,3.2,5.5,6.1,6.9c2.9,1.4,6.2,1.6,9.2,0.6c6.3-2.2,9.6-9,7.4-15.3
	c-1-3-3.2-5.5-6.1-6.9C82.9,36,81.2,35.6,79.4,35.6"/>
<path id="XMLID_17_" class="st0" d="M79.4,55.2c-1.9,0-3.8-0.9-5.1-2.4c-0.5-0.6-0.4-1.6,0.2-2.1c0.6-0.5,1.6-0.4,2.1,0.2
	c0.9,1.1,2.5,1.6,3.9,1.1c1.4-0.5,2.4-1.8,2.4-3.3c0-0.8,0.7-1.5,1.6-1.5c0.8,0,1.5,0.7,1.5,1.6c-0.1,2.8-1.9,5.2-4.5,6.1
	C80.9,55.1,80.2,55.2,79.4,55.2"/>
<path id="XMLID_16_" class="st0" d="M75.4,46.3c0,1.1-1,2-2.1,2c-1.1,0-2-1-2-2.1c0-1.1,1-2,2.1-2C74.6,44.2,75.5,45.2,75.4,46.3"/>
<path id="XMLID_15_" class="st0" d="M85.1,42.7c0,1.1-1,2-2.1,2c-1.1,0-2-1-2-2.1c0-1.1,1-2,2.1-2C84.2,40.6,85.1,41.6,85.1,42.7"/>
<path id="XMLID_12_" class="st0" d="M92.2,25c-0.2,0-0.4,0-0.6-0.1l-11.5-5.1c-3.6-1.6-5.3-5.9-3.7-9.5c0.8-1.8,2.2-3.1,4-3.8
	c1.7-0.7,3.6-0.6,5.2,0c0.8-1.7,2.2-2.9,3.9-3.6c1.8-0.7,3.8-0.6,5.5,0.1c3.6,1.6,5.3,5.9,3.7,9.5l-5.1,11.6
	c-0.2,0.4-0.5,0.7-0.8,0.8C92.6,25,92.4,25,92.2,25 M83,9c-0.5,0-1,0.1-1.5,0.3c-1,0.4-1.9,1.2-2.3,2.2c-0.9,2.1,0,4.6,2.1,5.5
	l10.1,4.5L96,11.3c0.9-2.1,0-4.6-2.1-5.5c-1-0.5-2.1-0.5-3.2-0.1c-1,0.4-1.9,1.2-2.3,2.2l-0.5,1.2c-0.2,0.4-0.5,0.7-0.8,0.8
	c-0.4,0.1-0.8,0.1-1.2,0l-1.1-0.5C84.2,9.1,83.6,9,83,9"/>
<path id="XMLID_11_" class="st0" d="M99.5,30.8c0,1-0.8,1.7-1.8,1.7c-1,0-1.7-0.8-1.7-1.8c0-1,0.8-1.7,1.8-1.7
	C98.8,29.1,99.5,29.9,99.5,30.8"/>
<path id="XMLID_10_" class="st0" d="M26.2,27.1c0,1-0.8,1.7-1.8,1.7c-1,0-1.7-0.8-1.7-1.8c0-1,0.8-1.7,1.8-1.7
	C25.5,25.3,26.3,26.1,26.2,27.1"/>
<path id="XMLID_9_" class="st0" d="M92,69.7L92,69.7c-0.9,0-1.5-0.7-1.5-1.5l0-1c0-0.8,0.7-1.5,1.5-1.5c0.8,0,1.5,0.7,1.5,1.5l0,1
	C93.5,69,92.8,69.7,92,69.7"/>
<path id="XMLID_8_" class="st0" d="M91.8,78.7L91.8,78.7c-0.9,0-1.5-0.7-1.5-1.5l0-1c0-0.8,0.7-1.5,1.5-1.5h0c0.8,0,1.5,0.7,1.5,1.5
	l0,1C93.3,78,92.7,78.7,91.8,78.7"/>
<path id="XMLID_7_" class="st0" d="M87.9,73.6L87.9,73.6l-1,0c-0.8,0-1.5-0.7-1.5-1.5c0-0.8,0.7-1.5,1.5-1.5c0,0,0,0,0,0l1,0
	c0.8,0,1.5,0.7,1.5,1.5C89.4,72.9,88.7,73.6,87.9,73.6"/>
<path id="XMLID_6_" class="st0" d="M96.9,73.8L96.9,73.8l-1,0c-0.8,0-1.5-0.7-1.5-1.5c0-0.8,0.7-1.5,1.5-1.5h0l1,0
	c0.8,0,1.5,0.7,1.5,1.5C98.4,73.1,97.8,73.8,96.9,73.8"/>
<path id="XMLID_5_" class="st0" d="M26.8,8.3L26.8,8.3c-0.9,0-1.5-0.7-1.5-1.5l0-1c0-0.8,0.7-1.5,1.5-1.5h0c0.8,0,1.5,0.7,1.5,1.5
	l0,1C28.3,7.7,27.6,8.3,26.8,8.3"/>
<path id="XMLID_4_" class="st0" d="M26.6,17.4L26.6,17.4c-0.9,0-1.5-0.7-1.5-1.5l0-1c0-0.8,0.7-1.5,1.5-1.5c0.8,0,1.5,0.7,1.5,1.5
	l0,1C28.1,16.7,27.4,17.4,26.6,17.4"/>
<path id="XMLID_3_" class="st0" d="M22.7,12.3L22.7,12.3l-1,0c-0.8,0-1.5-0.7-1.5-1.5s0.7-1.5,1.5-1.5l1,0c0.8,0,1.5,0.7,1.5,1.5
	C24.2,11.6,23.5,12.3,22.7,12.3"/>
<path id="XMLID_2_" class="st0" d="M31.7,12.4L31.7,12.4l-1,0c-0.8,0-1.5-0.7-1.5-1.5c0-0.8,0.7-1.5,1.5-1.5h0l1,0
	c0.8,0,1.5,0.7,1.5,1.5C33.2,11.8,32.5,12.4,31.7,12.4"/>
</svg>
