<?xml version="1.0" encoding="utf-8"?>
<!-- Generator: Adobe Illustrator 19.0.0, SVG Export Plug-In . SVG Version: 6.00 Build 0)  -->
<svg version="1.1" id="Capa_1" xmlns="http://www.w3.org/2000/svg" xmlns:xlink="http://www.w3.org/1999/xlink" x="0px" y="0px"
	 viewBox="0 0 106.5 82.8" style="enable-background:new 0 0 106.5 82.8;" xml:space="preserve">
<style type="text/css">
	.st0{fill:none;stroke:#686868;stroke-width:4.082;stroke-linejoin:round;stroke-miterlimit:10;}
	.st1{fill:#FFFFFF;}
	.st2{fill:none;stroke:#686868;stroke-width:4.082;stroke-linecap:round;stroke-linejoin:round;stroke-miterlimit:10;}
</style>
<polyline id="XMLID_9_" class="st0" points="19.8,78 19.8,41.3 11.6,41.3 11.6,78 "/>
<polyline id="XMLID_8_" class="st0" points="40.2,78 40.2,53.5 32,53.5 32,78 "/>
<polyline id="XMLID_7_" class="st0" points="60.6,78 60.6,33.1 52.4,33.1 52.4,78 "/>
<polyline id="XMLID_6_" class="st0" points="81,78 81,16.8 72.8,16.8 72.8,78 "/>
<polyline id="XMLID_5_" class="st0" points="93.2,78 93.2,4.5 101.4,4.5 101.4,78 "/>
<path id="XMLID_4_" class="st1" d="M100.6,15.7c-2.8-1.8-6.6-1-8.4,1.9C92.1,17.7,86,27,75.7,29.1c-7,1.4-10.7,6.2-13.4,9.7
	c-2.8,3.6-3.7,4.5-5.8,4.5c-3.4,0-5.2-1.3-7.8-3.2c-3-2.2-6.7-4.9-12.6-4.9c-8.7,0-12.8,5.8-15.8,10.1c-2.1,2.9-3.9,5.5-6.9,6.7
	c-4.2,1.7-7.5,3.7-9.9,6.1V78h5.7c0.2-0.6,0.4-1.3,0.4-2c0-7.7,1.4-9.9,8.4-12.7c6.4-2.6,9.7-7.2,12.3-11c2.8-3.9,3.7-4.9,5.8-4.9
	c1.8,0,2.9,0.8,5.4,2.6c3.2,2.4,7.7,5.6,15,5.6c8.4,0,12.5-5.3,15.5-9.2c2.3-3,3.7-4.7,6.1-5.2c15.6-3.2,24-16.5,24.4-17
	C104.3,21.2,103.4,17.5,100.6,15.7"/>
<path id="XMLID_3_" class="st2" d="M3.4,76c0-10,2.8-14.5,12.2-18.4C26,53.4,25.9,41.3,36.1,41.3c8.2,0,10.2,8.2,20.4,8.2
	c10.2,0,10.4-12.2,20.4-14.3c13.2-2.7,20.4-14.3,20.4-14.3"/>
<polyline id="XMLID_2_" class="st2" points="101.4,78 3.4,78 3.4,76 "/>
</svg>
