<?xml version="1.0" encoding="utf-8"?>
<!-- Generator: Adobe Illustrator 19.0.0, SVG Export Plug-In . SVG Version: 6.00 Build 0)  -->
<svg version="1.1" id="Capa_1" xmlns="http://www.w3.org/2000/svg" xmlns:xlink="http://www.w3.org/1999/xlink" x="0px" y="0px"
	 viewBox="0 0 107.7 105.7" style="enable-background:new 0 0 107.7 105.7;" xml:space="preserve">
<style type="text/css">
	.st0{fill:none;stroke:#686868;stroke-width:4.167;stroke-linecap:round;stroke-linejoin:round;stroke-miterlimit:10;}
</style>
<g id="XMLID_1_">
	<path id="XMLID_3_" class="st0" d="M91.5,3h-75C9.6,3,4,8.6,4,15.5v54.2c0,6.9,5.6,12.5,12.5,12.5h4.2h2.1V103l20.8-20.8h47.9
		c6.9,0,12.5-5.6,12.5-12.5V15.5C104,8.6,98.4,3,91.5,3z"/>
	<path id="XMLID_2_" class="st0" d="M54,66.7c0,0,27.4-15.7,27.4-30.9c0-8.1-6.6-14.7-14.7-14.7c-5.4,0-10.1,2.9-12.6,7.2
		c-2.6-4.3-7.3-7.2-12.6-7.2c-8.1,0-14.7,6.6-14.7,14.7C26.6,51,54,66.7,54,66.7z"/>
</g>
</svg>
